<svg width="66" height="47" viewBox="0 0 66 47" fill="none" xmlns="http://www.w3.org/2000/svg">
<path d="M14.3 46.61C11.4127 46.61 8.91167 46.061 6.797 44.963C4.68233 43.865 3.03533 42.3197 1.856 40.327C0.717334 38.3343 0.148 35.996 0.148 33.312V14.158C0.148 11.474 0.717334 9.13567 1.856 7.143C3.03533 5.15033 4.68233 3.605 6.797 2.507C8.91167 1.409 11.4127 0.859999 14.3 0.859999C17.228 0.859999 19.729 1.409 21.803 2.507C23.9177 3.605 25.5443 5.15033 26.683 7.143C27.8623 9.13567 28.452 11.474 28.452 14.158V33.312C28.452 35.996 27.8623 38.3343 26.683 40.327C25.5443 42.3197 23.9177 43.865 21.803 44.963C19.6883 46.061 17.1873 46.61 14.3 46.61ZM14.3 40.022C16.4147 40.022 18.1023 39.412 19.363 38.192C20.6237 36.972 21.254 35.3453 21.254 33.312V14.158C21.254 12.1247 20.6237 10.498 19.363 9.278C18.1023 8.058 16.4147 7.448 14.3 7.448C12.1853 7.448 10.4977 8.058 9.237 9.278C7.97633 10.498 7.346 12.1247 7.346 14.158V33.312C7.346 35.3453 7.97633 36.972 9.237 38.192C10.4977 39.412 12.1853 40.022 14.3 40.022ZM14.3 27.7C13.1207 27.7 12.1447 27.3137 11.372 26.541C10.64 25.7683 10.274 24.772 10.274 23.552C10.274 22.332 10.64 21.356 11.372 20.624C12.104 19.892 13.08 19.526 14.3 19.526C15.52 19.526 16.496 19.892 17.228 20.624C17.96 21.356 18.326 22.332 18.326 23.552C18.326 24.772 17.96 25.7683 17.228 26.541C16.496 27.3137 15.52 27.7 14.3 27.7ZM38.0052 46V38.619L51.9132 24.65C53.8652 22.6573 55.3088 20.868 56.2442 19.282C57.1795 17.6553 57.6472 15.988 57.6472 14.28C57.6472 12.206 57.0778 10.5997 55.9392 9.461C54.8005 8.28167 53.2552 7.692 51.3032 7.692C49.1478 7.692 47.4602 8.32233 46.2402 9.583C45.0202 10.803 44.4102 12.511 44.4102 14.707H36.7852C36.8258 11.8603 37.4358 9.42033 38.6152 7.387C39.8352 5.313 41.5432 3.70667 43.7392 2.568C45.9352 1.42933 48.4972 0.859999 51.4252 0.859999C54.2312 0.859999 56.6712 1.38867 58.7452 2.446C60.8192 3.50333 62.4255 4.98767 63.5642 6.899C64.7028 8.81033 65.2722 11.0877 65.2722 13.731C65.2722 16.4557 64.5605 19.1193 63.1372 21.722C61.7545 24.284 59.5178 27.0493 56.4272 30.018L47.1552 39.107H65.8212V46H38.0052Z" fill="#6B6B6B"/>
</svg>
