<svg width="66" height="47" viewBox="0 0 66 47" fill="none" xmlns="http://www.w3.org/2000/svg">
<path d="M14.3 46.61C11.4127 46.61 8.91167 46.061 6.797 44.963C4.68233 43.865 3.03533 42.3197 1.856 40.327C0.717334 38.3343 0.148 35.996 0.148 33.312V14.158C0.148 11.474 0.717334 9.13567 1.856 7.143C3.03533 5.15033 4.68233 3.605 6.797 2.507C8.91167 1.409 11.4127 0.859999 14.3 0.859999C17.228 0.859999 19.729 1.409 21.803 2.507C23.9177 3.605 25.5443 5.15033 26.683 7.143C27.8623 9.13567 28.452 11.474 28.452 14.158V33.312C28.452 35.996 27.8623 38.3343 26.683 40.327C25.5443 42.3197 23.9177 43.865 21.803 44.963C19.6883 46.061 17.1873 46.61 14.3 46.61ZM14.3 40.022C16.4147 40.022 18.1023 39.412 19.363 38.192C20.6237 36.972 21.254 35.3453 21.254 33.312V14.158C21.254 12.1247 20.6237 10.498 19.363 9.278C18.1023 8.058 16.4147 7.448 14.3 7.448C12.1853 7.448 10.4977 8.058 9.237 9.278C7.97633 10.498 7.346 12.1247 7.346 14.158V33.312C7.346 35.3453 7.97633 36.972 9.237 38.192C10.4977 39.412 12.1853 40.022 14.3 40.022ZM14.3 27.7C13.1207 27.7 12.1447 27.3137 11.372 26.541C10.64 25.7683 10.274 24.772 10.274 23.552C10.274 22.332 10.64 21.356 11.372 20.624C12.104 19.892 13.08 19.526 14.3 19.526C15.52 19.526 16.496 19.892 17.228 20.624C17.96 21.356 18.326 22.332 18.326 23.552C18.326 24.772 17.96 25.7683 17.228 26.541C16.496 27.3137 15.52 27.7 14.3 27.7ZM51.0592 46.61C48.1718 46.61 45.6505 46.0813 43.4952 45.024C41.3805 43.9667 39.7335 42.4823 38.5542 40.571C37.3748 38.6597 36.7852 36.4027 36.7852 33.8H44.4712C44.4712 35.7927 45.0405 37.3583 46.1792 38.497C47.3585 39.595 49.0055 40.144 51.1202 40.144C53.2348 40.144 54.8615 39.5747 56.0002 38.436C57.1388 37.2973 57.7082 35.752 57.7082 33.8V30.323C57.7082 28.3303 57.1388 26.785 56.0002 25.687C54.8615 24.5483 53.2348 23.979 51.1202 23.979H46.1182V17.086L55.9392 7.997H38.7982V1.47H63.6862V8.363L51.1202 19.892V17.452C55.5122 17.452 58.9892 18.611 61.5512 20.929C64.1132 23.247 65.3942 26.3783 65.3942 30.323V33.8C65.3942 36.4027 64.8045 38.6597 63.6252 40.571C62.4458 42.4823 60.7785 43.9667 58.6232 45.024C56.4678 46.0813 53.9465 46.61 51.0592 46.61Z" fill="#6B6B6B"/>
</svg>
