<svg width="44" height="40" viewBox="0 0 44 40" fill="none" xmlns="http://www.w3.org/2000/svg">
<rect width="44" height="40" fill="#009490"/>
<path d="M18.91 28.67C18.72 28.67 18.53 28.6 18.38 28.45C18.09 28.16 18.09 27.68 18.38 27.39L24.9 20.87C25.38 20.39 25.38 19.61 24.9 19.13L18.38 12.61C18.09 12.32 18.09 11.84 18.38 11.55C18.67 11.26 19.15 11.26 19.44 11.55L25.96 18.07C26.47 18.58 26.76 19.27 26.76 20C26.76 20.73 26.48 21.42 25.96 21.93L19.44 28.45C19.29 28.59 19.1 28.67 18.91 28.67Z" fill="white"/>
</svg>
