<svg width="46" height="42" viewBox="0 0 46 42" fill="none" xmlns="http://www.w3.org/2000/svg">
<rect width="44" height="40" transform="translate(44.959 41.0449) rotate(-179.883)" fill="#009490"/>
<path d="M26.1078 12.3363C26.2978 12.3367 26.4876 12.4071 26.6373 12.5574C26.9267 12.848 26.9257 13.328 26.6351 13.6174L20.1018 20.124C19.6208 20.603 19.6192 21.383 20.0982 21.864L26.6049 28.3974C26.8943 28.6879 26.8933 29.1679 26.6027 29.4573C26.3121 29.7468 25.8321 29.7458 25.5427 29.4552L19.0361 22.9218C18.5271 22.4108 18.2385 21.7202 18.24 20.9902C18.2415 20.2602 18.5229 19.5708 19.044 19.0619L25.5773 12.5552C25.7276 12.4155 25.9178 12.3359 26.1078 12.3363Z" fill="white"/>
</svg>
