<svg width="24" height="24" viewBox="0 0 24 24" fill="none" xmlns="http://www.w3.org/2000/svg">
<path d="M12.75 9.41977H8.66998C6.41998 9.41977 4.59003 7.58975 4.59003 5.33975C4.59003 3.08975 6.41998 1.25977 8.66998 1.25977H12.75V9.41977ZM8.66998 2.74976C7.24998 2.74976 6.09003 3.90974 6.09003 5.32974C6.09003 6.74974 7.24998 7.90976 8.66998 7.90976H11.25V2.73975H8.66998V2.74976Z" fill="white"/>
<path d="M12.75 16.0799H8.66998C6.41998 16.0799 4.59003 14.2499 4.59003 11.9999C4.59003 9.74991 6.41998 7.91992 8.66998 7.91992H12.75V16.0799ZM8.66998 9.41992C7.24998 9.41992 6.09003 10.5799 6.09003 11.9999C6.09003 13.4199 7.24998 14.5799 8.66998 14.5799H11.25V9.40991H8.66998V9.41992Z" fill="white"/>
<path d="M8.66998 22.7498C6.41998 22.7498 4.59003 20.9199 4.59003 18.6699C4.59003 16.4199 6.41998 14.5898 8.66998 14.5898H12.75V18.6699C12.75 20.9199 10.92 22.7498 8.66998 22.7498ZM8.66998 16.0798C7.24998 16.0798 6.09003 17.2399 6.09003 18.6599C6.09003 20.0799 7.24998 21.2398 8.66998 21.2398C10.09 21.2398 11.25 20.0799 11.25 18.6599V16.0798H8.66998Z" fill="white"/>
<path d="M15.33 9.42001H11.25V1.25H15.33C17.58 1.25 19.41 3.07999 19.41 5.32999C19.42 7.57999 17.58 9.42001 15.33 9.42001ZM12.75 7.92001H15.33C16.75 7.92001 17.91 6.76 17.91 5.34C17.91 3.92 16.75 2.76001 15.33 2.76001H12.75V7.92001Z" fill="white"/>
<path d="M15.33 16.0799C13.08 16.0799 11.25 14.2499 11.25 11.9999C11.25 9.74991 13.08 7.91992 15.33 7.91992C17.58 7.91992 19.41 9.74991 19.41 11.9999C19.41 14.2499 17.58 16.0799 15.33 16.0799ZM15.33 9.41992C13.91 9.41992 12.75 10.5799 12.75 11.9999C12.75 13.4199 13.91 14.5799 15.33 14.5799C16.75 14.5799 17.91 13.4199 17.91 11.9999C17.91 10.5799 16.76 9.41992 15.33 9.41992Z" fill="white"/>
</svg>
