<svg width="24" height="24" viewBox="0 0 24 24" fill="none" xmlns="http://www.w3.org/2000/svg">
<path d="M12.1667 21.0602C11.8703 21.0602 11.5835 21.022 11.3444 20.9359C7.69196 19.6834 1.88819 15.2373 1.88819 8.66862C1.88819 5.32213 4.59406 2.60669 7.92143 2.60669C9.53731 2.60669 11.048 3.23774 12.1667 4.36599C13.2854 3.23774 14.7961 2.60669 16.412 2.60669C19.7393 2.60669 22.4452 5.33169 22.4452 8.66862C22.4452 15.2469 16.6414 19.6834 12.989 20.9359C12.7499 21.022 12.4631 21.0602 12.1667 21.0602ZM7.92143 4.0409C5.38766 4.0409 3.3224 6.11572 3.3224 8.66862C3.3224 15.1991 9.60424 18.8324 11.8129 19.5877C11.985 19.6451 12.3579 19.6451 12.53 19.5877C14.7292 18.8324 21.0206 15.2086 21.0206 8.66862C21.0206 6.11572 18.9553 4.0409 16.4215 4.0409C14.9682 4.0409 13.62 4.71976 12.7499 5.89581C12.4822 6.25915 11.8703 6.25915 11.6026 5.89581C10.7134 4.7102 9.37477 4.0409 7.92143 4.0409Z" fill="#F3F3F3"/>
</svg>
