<svg width="24" height="24" viewBox="0 0 24 24" fill="none" xmlns="http://www.w3.org/2000/svg">
<path d="M5.67999 22.75C5.54999 22.75 5.41999 22.72 5.29999 22.65C5.06999 22.52 4.92999 22.27 4.92999 22V18.8C2.57999 16.89 1.25 14.17 1.25 11.26C1.25 5.74001 6.07 1.25 12 1.25C17.93 1.25 22.75 5.74001 22.75 11.26C22.75 16.78 17.93 21.27 12 21.27C11.03 21.27 10.07 21.15 9.14001 20.91L6.04999 22.65C5.93999 22.72 5.80999 22.75 5.67999 22.75ZM12 2.75C6.9 2.75 2.75 6.57001 2.75 11.26C2.75 13.82 3.98001 16.22 6.14001 17.84C6.33001 17.98 6.44 18.2 6.44 18.44V20.72L8.67999 19.46C8.84999 19.36 9.06 19.34 9.25 19.39C10.14 19.64 11.07 19.77 12 19.77C17.1 19.77 21.25 15.95 21.25 11.26C21.25 6.57001 17.1 2.75 12 2.75Z" fill="#FEFEFE"/>
<path d="M7.50001 14.5002C7.25001 14.5002 6.99999 14.3702 6.85999 14.1502C6.68999 13.8702 6.70999 13.5202 6.91999 13.2702L10.7 8.77019C10.93 8.50019 11.31 8.42019 11.62 8.59019L13.07 9.36018L16.3 8.5302C16.62 8.4502 16.95 8.58018 17.12 8.86018C17.29 9.14018 17.27 9.49019 17.06 9.74019L13.3 14.2402C13.07 14.5202 12.66 14.5902 12.35 14.4102L11.06 13.6602L7.65998 14.4902C7.61998 14.4902 7.56001 14.5002 7.50001 14.5002ZM11.19 12.1002C11.32 12.1002 11.45 12.1302 11.57 12.2002L12.57 12.7802L14.43 10.5502L13.17 10.8702C12.99 10.9202 12.8 10.8902 12.63 10.8102L11.46 10.1902L9.53998 12.4702L11 12.1102C11.07 12.1102 11.13 12.1002 11.19 12.1002Z" fill="#FEFEFE"/>
</svg>
