<svg width="22" height="20" viewBox="0 0 22 20" fill="none" xmlns="http://www.w3.org/2000/svg">
<path d="M11.1667 19.0602C10.8703 19.0602 10.5835 19.022 10.3444 18.9359C6.69196 17.6834 0.888187 13.2373 0.888187 6.66862C0.888187 3.32213 3.59406 0.606689 6.92143 0.606689C8.53731 0.606689 10.048 1.23774 11.1667 2.36599C12.2854 1.23774 13.7961 0.606689 15.412 0.606689C18.7393 0.606689 21.4452 3.33169 21.4452 6.66862C21.4452 13.2469 15.6414 17.6834 11.989 18.9359C11.7499 19.022 11.4631 19.0602 11.1667 19.0602ZM6.92143 2.0409C4.38766 2.0409 2.3224 4.11572 2.3224 6.66862C2.3224 13.1991 8.60424 16.8324 10.8129 17.5877C10.985 17.6451 11.3579 17.6451 11.53 17.5877C13.7292 16.8324 20.0206 13.2086 20.0206 6.66862C20.0206 4.11572 17.9553 2.0409 15.4215 2.0409C13.9682 2.0409 12.62 2.71976 11.7499 3.89581C11.4822 4.25915 10.8703 4.25915 10.6026 3.89581C9.71336 2.7102 8.37477 2.0409 6.92143 2.0409Z" fill="#F3F3F3"/>
</svg>
